<?xml version="1.0" encoding="utf-8"?>
<!-- Generator: Adobe Illustrator 24.1.3, SVG Export Plug-In . SVG Version: 6.00 Build 0)  -->
<svg version="1.1" id="Layer_1" xmlns="http://www.w3.org/2000/svg" xmlns:xlink="http://www.w3.org/1999/xlink" x="0px" y="0px"
	 viewBox="0 0 202 52" style="enable-background:new 0 0 202 52;" xml:space="preserve">
<style type="text/css">
	.st0{fill:#FCB813;}
	.st1{fill:#FFFFFF;}
</style>
<g>
	<path class="st0" d="M1,30.06c0,11.88,9.63,21.51,21.51,21.51c11.88,0,21.51-9.63,21.51-21.51c0-11.88-9.63-21.51-21.51-21.51
		C10.63,8.55,1,18.18,1,30.06z"/>
	<path class="st0" d="M39.58,6.71c0,3.46,2.81,6.27,6.27,6.27c3.46,0,6.27-2.81,6.27-6.27c0-3.47-2.81-6.28-6.27-6.28
		C42.39,0.44,39.58,3.25,39.58,6.71z"/>
	<path class="st1" d="M8.27,35.12l4.25-5.02l-3.87-4.46c-0.53-0.62-0.77-1.18-0.77-1.79c0-1.33,0.99-2.17,2.17-2.17
		c0.93,0,1.58,0.43,2.2,1.21l3.07,4.09l3.13-4.09c0.56-0.68,1.21-1.21,2.05-1.21c1.24,0,2.2,0.87,2.2,2.05
		c0,0.65-0.28,1.14-0.65,1.61L18,30.04l4.15,4.77c0.53,0.62,0.77,1.18,0.77,1.79c0,1.33-0.99,2.17-2.16,2.17
		c-0.93,0-1.58-0.43-2.2-1.21l-3.34-4.4l-3.35,4.4c-0.56,0.68-1.21,1.21-2.04,1.21c-1.24,0-2.2-0.87-2.2-2.05
		C7.62,36.08,7.87,35.59,8.27,35.12z"/>
	<path class="st1" d="M31.28,38.9c-4.99,0-8.68-3.5-8.68-8.58v-0.06c0-4.74,3.38-8.64,8.21-8.64c5.54,0,7.99,4.55,7.99,7.99
		c0,1.36-0.96,2.26-2.2,2.26h-9.32c0.46,2.14,1.95,3.25,4.06,3.25c1.3,0,2.39-0.4,3.35-1.12c0.34-0.25,0.65-0.37,1.15-0.37
		c1.05,0,1.83,0.8,1.83,1.85c0,0.62-0.28,1.09-0.62,1.4C35.58,38.13,33.69,38.9,31.28,38.9z M34.31,28.93
		c-0.28-2.11-1.52-3.53-3.5-3.53c-1.95,0-3.22,1.39-3.6,3.53H34.31z"/>
	<path class="st1" d="M55.49,28.75l3.41-4.18c0.12-0.15,0.21-0.32,0.21-0.53c0-0.42-0.32-0.74-0.74-0.74c-0.3,0-0.51,0.17-0.7,0.4
		l-3.13,3.99l-3.16-4c-0.19-0.24-0.4-0.38-0.72-0.38c-0.42,0-0.76,0.29-0.76,0.76c0,0.21,0.08,0.4,0.25,0.6l3.37,4.13l-3.58,4.41
		c-0.15,0.15-0.21,0.32-0.21,0.53c0,0.4,0.32,0.74,0.74,0.74c0.3,0,0.51-0.17,0.7-0.4l3.3-4.19l3.33,4.22
		c0.19,0.23,0.4,0.38,0.72,0.38c0.42,0,0.77-0.32,0.77-0.77c0-0.21-0.09-0.4-0.23-0.59L55.49,28.75z"/>
	<path class="st1" d="M97.62,23.31h-5.72h-0.04h0c-3.09,0-5.72,2.41-5.72,5.72c0,3.28,2.58,5.7,5.68,5.7h0.04
		c3.1,0,5.72-2.43,5.72-5.74c0-1.63-0.64-3.04-1.65-4.05h1.69c0.46,0,0.83-0.34,0.83-0.8C98.45,23.66,98.09,23.31,97.62,23.31z
		 M96.13,29.03c0,2.37-1.91,4.03-4.22,4.03h-0.04c-2.35,0-4.28-1.76-4.28-4.07c0-2.37,1.93-4,4.24-4h0.04
		C94.22,24.98,96.13,26.72,96.13,29.03z"/>
	<path class="st1" d="M177.41,23.31c-3.3,0-5.72,2.63-5.72,5.72v0v0.04v8.45c0,0.47,0.36,0.83,0.83,0.83c0.47,0,0.8-0.36,0.8-0.83
		v-4.42c1.01,1.02,2.42,1.66,4.05,1.66c3.31,0,5.74-2.63,5.74-5.72v-0.04C183.11,25.89,180.69,23.31,177.41,23.31z M181.43,29.07
		c0,2.31-1.65,4.22-4.03,4.22c-2.31,0-4.05-1.91-4.05-4.26v-0.04c0-2.31,1.63-4.23,4-4.23c2.31,0,4.07,1.93,4.07,4.28V29.07z"/>
	<path class="st1" d="M66.68,23.31c-3.31,0-5.72,2.63-5.72,5.72v0v0.04v8.45c0,0.47,0.36,0.83,0.83,0.83c0.47,0,0.81-0.36,0.81-0.83
		v-4.42c1.01,1.02,2.42,1.66,4.05,1.66c3.3,0,5.74-2.63,5.74-5.72v-0.04C72.37,25.89,69.96,23.31,66.68,23.31z M70.7,29.07
		c0,2.31-1.65,4.22-4.02,4.22c-2.31,0-4.05-1.91-4.05-4.26v-0.04c0-2.31,1.63-4.23,4.01-4.23c2.31,0,4.06,1.93,4.06,4.28V29.07z"/>
	<path class="st1" d="M105.62,23.31c-1.88,0-3.01,0.95-3.75,2.14v-1.19c0-0.46-0.36-0.82-0.8-0.82c-0.47,0-0.81,0.38-0.81,0.82v9.51
		c0,0.47,0.36,0.83,0.81,0.83c0.47,0,0.8-0.36,0.8-0.83v-5.55c0-2.06,1.42-3.43,3.28-3.43c1.93,0,3.03,1.27,3.03,3.3v5.68
		c0,0.47,0.38,0.83,0.83,0.83c0.47,0,0.81-0.36,0.81-0.83v-6.08C109.82,25.08,108.27,23.31,105.62,23.31z"/>
	<path class="st1" d="M147.43,28.29l3.58-3.52c0.21-0.21,0.32-0.38,0.32-0.64c0-0.4-0.3-0.76-0.74-0.76c-0.25,0-0.44,0.11-0.63,0.32
		l-5.94,6.04v-5.6c0-0.45-0.36-0.83-0.82-0.83c-0.45,0-0.81,0.38-0.81,0.83v9.58c0,0.47,0.36,0.82,0.83,0.82
		c0.47,0,0.8-0.36,0.8-0.82v-2.1l2.27-2.25l3.79,4.79c0.21,0.27,0.4,0.38,0.7,0.38c0.45,0,0.79-0.32,0.79-0.76
		c0-0.21-0.06-0.36-0.21-0.55L147.43,28.29z"/>
	<path class="st1" d="M163.26,23.45c-0.45,0-0.8,0.38-0.8,0.83v1.16c-1.02-1.29-2.61-2.13-4.48-2.13c-3.3,0-5.72,2.63-5.72,5.72
		v0.04c0,3.09,2.39,5.68,5.68,5.68c1.89,0,3.49-0.86,4.52-2.18v1.22c0,0.47,0.36,0.83,0.82,0.83c0.47,0,0.81-0.36,0.81-0.83v-9.51
		C164.09,23.81,163.73,23.45,163.26,23.45z M162,29.07c0,2.31-1.65,4.22-4.03,4.22c-2.31,0-4.04-1.91-4.04-4.26v-0.04
		c0-2.31,1.63-4.23,4-4.23c2.31,0,4.07,1.93,4.07,4.28V29.07z"/>
	<path class="st1" d="M200.18,23.45c-0.45,0-0.81,0.38-0.81,0.83v1.16c-1.02-1.29-2.61-2.13-4.48-2.13c-3.31,0-5.72,2.63-5.72,5.72
		v0.04c0,3.09,2.39,5.68,5.68,5.68c1.89,0,3.49-0.86,4.52-2.18v1.22c0,0.47,0.36,0.83,0.83,0.83c0.46,0,0.81-0.36,0.81-0.83v-9.51
		C201,23.81,200.64,23.45,200.18,23.45z M198.91,29.07c0,2.31-1.65,4.22-4.02,4.22c-2.31,0-4.05-1.91-4.05-4.26v-0.04
		c0-2.31,1.63-4.23,4.01-4.23c2.31,0,4.06,1.93,4.06,4.28V29.07z"/>
	<path class="st1" d="M185.82,23.31c-0.44,0-0.8,0.38-0.8,0.83v9.51c0,0.46,0.36,0.83,0.83,0.83c0.47,0,0.81-0.36,0.81-0.83v-9.51
		C186.65,23.66,186.29,23.31,185.82,23.31z"/>
	<path class="st1" d="M168.05,23.31c-0.44,0-0.8,0.38-0.8,0.83v9.51c0,0.46,0.36,0.83,0.82,0.83c0.46,0,0.8-0.36,0.8-0.83v-9.51
		C168.87,23.66,168.51,23.31,168.05,23.31z"/>
	<path class="st1" d="M127.59,31.61c-0.2,0-0.37,0.08-0.49,0.21c-0.97,0.88-2.34,1.57-3.95,1.57c-1.86,0-3.45-0.49-3.45-2.04
		c0-1.31,1.29-1.99,3.01-1.99h2.37v-1.23h-2.27c-1.72,0-2.63-0.74-2.63-1.63c0-1.38,1.46-1.82,2.95-1.82c1.7,0,2.73,0.51,3.73,1.33
		c0.13,0.12,0.3,0.19,0.49,0.19c0.4,0,0.73-0.33,0.73-0.73c0-0.29-0.17-0.54-0.42-0.66c-1.07-0.88-2.36-1.51-4.49-1.51
		c-2.35,0-4.68,0.87-4.68,3.03c0,1.06,0.83,2.06,2.35,2.33v0.04c-1.52,0.32-2.82,1.34-2.82,2.8c0,2.37,2.08,3.26,5.09,3.26
		c2.18,0,3.79-0.89,5-2.01l-0.01-0.01c0.11-0.12,0.18-0.28,0.18-0.45C128.27,31.92,127.97,31.61,127.59,31.61z"/>
	<path class="st1" d="M103.85,22.17c0.25,0.15,0.58,0.1,0.77-0.13l1.82-2.13c0.12-0.14,0.17-0.33,0.13-0.51
		c-0.04-0.18-0.15-0.34-0.32-0.42l-0.8-0.4c-0.15-0.08-0.33-0.09-0.49-0.03c-0.16,0.06-0.28,0.19-0.34,0.34l-1.02,2.54
		C103.49,21.7,103.6,22.01,103.85,22.17z"/>
	<path class="st1" d="M188.28,18.97l-0.8-0.4c-0.15-0.08-0.33-0.09-0.48-0.03c-0.16,0.06-0.28,0.19-0.35,0.34l-1.02,2.54
		c-0.11,0.27,0,0.59,0.25,0.74c0.25,0.15,0.58,0.1,0.77-0.13l1.82-2.13c0.12-0.14,0.17-0.33,0.13-0.51
		C188.56,19.21,188.44,19.06,188.28,18.97z"/>
	<path class="st1" d="M83.02,23.31c-0.44,0-0.82,0.36-0.82,0.83v5.68c0,1.82-1.41,3.1-3.14,3.1c-1.61,0-3.14-1.27-3.14-3.1v-5.68
		c0-0.47-0.38-0.83-0.83-0.83c-0.47,0-0.8,0.36-0.8,0.83v6.08c0,2.57,2.18,4.33,4.76,4.38l0,0h0.01h0.01l0,0
		c2.58-0.06,4.76-1.82,4.76-4.38v-6.08C83.82,23.67,83.49,23.31,83.02,23.31z"/>
	<path class="st1" d="M138.73,23.31c-0.45,0-0.83,0.36-0.83,0.83v5.67c0,1.83-1.41,3.1-3.14,3.1c-1.61,0-3.14-1.28-3.14-3.1v-5.67
		c0-0.47-0.38-0.83-0.82-0.83c-0.47,0-0.81,0.36-0.81,0.83v6.08c0,2.57,2.18,4.33,4.77,4.38l0,0h0h0.01l0,0
		c2.58-0.05,4.76-1.82,4.76-4.38v-6.08C139.53,23.66,139.19,23.31,138.73,23.31z"/>
</g>
</svg>
